<mxfile host="app.diagrams.net" modified="2021-03-08T07:47:43.133Z" agent="5.0 (Windows NT 10.0; Win64; x64) AppleWebKit/537.36 (KHTML, like Gecko) Chrome/89.0.4389.72 Safari/537.36 Edg/89.0.774.45" etag="owlznpLhwZTP4i0o3tbJ" version="14.4.4" type="github">
  <diagram name="Page-1" id="7e0a89b8-554c-2b80-1dc8-d5c74ca68de4">
    <mxGraphModel dx="982" dy="527" grid="0" gridSize="10" guides="1" tooltips="1" connect="1" arrows="1" fold="1" page="1" pageScale="1" pageWidth="1100" pageHeight="850" background="#ffffff" math="0" shadow="0">
      <root>
        <mxCell id="0" />
        <mxCell id="1" parent="0" />
        <mxCell id="cm3Hr6SO8K254G_bE61V-59" value="" style="rounded=0;whiteSpace=wrap;html=1;fontSize=10;direction=north;" parent="1" vertex="1">
          <mxGeometry x="455" y="290" width="40" height="55" as="geometry" />
        </mxCell>
        <mxCell id="cm3Hr6SO8K254G_bE61V-8" value="&lt;p style=&quot;line-height: 120%; font-size: 12px;&quot;&gt;Power management IC&lt;/p&gt;" style="rounded=1;whiteSpace=wrap;html=1;verticalAlign=bottom;fontSize=12;labelPosition=center;verticalLabelPosition=top;align=center;spacingTop=0;spacing=-36;" parent="1" vertex="1">
          <mxGeometry x="372" y="140" width="158" height="130" as="geometry" />
        </mxCell>
        <mxCell id="cm3Hr6SO8K254G_bE61V-40" value="" style="edgeStyle=orthogonalEdgeStyle;rounded=0;orthogonalLoop=1;jettySize=auto;html=1;fontSize=12;" parent="1" source="cm3Hr6SO8K254G_bE61V-9" edge="1">
          <mxGeometry relative="1" as="geometry">
            <mxPoint x="530" y="187" as="targetPoint" />
          </mxGeometry>
        </mxCell>
        <mxCell id="cm3Hr6SO8K254G_bE61V-9" value="DC/DC" style="rounded=0;whiteSpace=wrap;html=1;" parent="1" vertex="1">
          <mxGeometry x="390" y="173" width="70" height="27" as="geometry" />
        </mxCell>
        <mxCell id="cm3Hr6SO8K254G_bE61V-64" value="" style="edgeStyle=orthogonalEdgeStyle;rounded=0;orthogonalLoop=1;jettySize=auto;html=1;fontSize=10;" parent="1" source="cm3Hr6SO8K254G_bE61V-13" edge="1">
          <mxGeometry relative="1" as="geometry">
            <mxPoint x="475" y="187" as="targetPoint" />
          </mxGeometry>
        </mxCell>
        <mxCell id="cm3Hr6SO8K254G_bE61V-13" value="&lt;font style=&quot;font-size: 12px;&quot;&gt;Battery FET&lt;/font&gt;" style="rounded=0;whiteSpace=wrap;html=1;fontSize=12;" parent="1" vertex="1">
          <mxGeometry x="450" y="216.5" width="50" height="30" as="geometry" />
        </mxCell>
        <mxCell id="cm3Hr6SO8K254G_bE61V-14" value="DC/DC 1" style="rounded=1;whiteSpace=wrap;html=1;fontSize=12;" parent="1" vertex="1">
          <mxGeometry x="590" y="140" width="60" height="26.5" as="geometry" />
        </mxCell>
        <mxCell id="cm3Hr6SO8K254G_bE61V-32" value="" style="shape=flexArrow;endArrow=classic;html=1;width=12;endSize=7;" parent="1" edge="1">
          <mxGeometry width="50" height="50" relative="1" as="geometry">
            <mxPoint x="530" y="186.36" as="sourcePoint" />
            <mxPoint x="570" y="186.36" as="targetPoint" />
          </mxGeometry>
        </mxCell>
        <mxCell id="cm3Hr6SO8K254G_bE61V-33" value="" style="shape=curlyBracket;whiteSpace=wrap;html=1;rounded=1;fontSize=12;size=0.5;" parent="1" vertex="1">
          <mxGeometry x="570" y="136.25" width="20" height="127.25" as="geometry" />
        </mxCell>
        <mxCell id="cm3Hr6SO8K254G_bE61V-34" value="DC/DC 2" style="rounded=1;whiteSpace=wrap;html=1;fontSize=12;" parent="1" vertex="1">
          <mxGeometry x="590" y="175.25" width="60" height="26.5" as="geometry" />
        </mxCell>
        <mxCell id="cm3Hr6SO8K254G_bE61V-35" value="DC/DC 3" style="rounded=1;whiteSpace=wrap;html=1;fontSize=12;" parent="1" vertex="1">
          <mxGeometry x="590" y="210" width="60" height="26.5" as="geometry" />
        </mxCell>
        <mxCell id="cm3Hr6SO8K254G_bE61V-36" value="&lt;font size=&quot;1&quot;&gt;&lt;b style=&quot;font-size: 25px&quot;&gt;...&lt;/b&gt;&lt;/font&gt;" style="text;html=1;strokeColor=none;fillColor=none;align=center;verticalAlign=middle;whiteSpace=wrap;rounded=0;fontSize=12;" parent="1" vertex="1">
          <mxGeometry x="600" y="236.5" width="40" height="20" as="geometry" />
        </mxCell>
        <mxCell id="cm3Hr6SO8K254G_bE61V-44" value="" style="edgeStyle=orthogonalEdgeStyle;rounded=0;orthogonalLoop=1;jettySize=auto;html=1;fontSize=10;spacingRight=0;horizontal=1;" parent="1" target="cm3Hr6SO8K254G_bE61V-13" edge="1">
          <mxGeometry relative="1" as="geometry">
            <mxPoint x="470" y="290" as="sourcePoint" />
            <Array as="points">
              <mxPoint x="475" y="290" />
            </Array>
          </mxGeometry>
        </mxCell>
        <mxCell id="cm3Hr6SO8K254G_bE61V-50" value="&lt;font&gt;&lt;font style=&quot;font-size: 14px&quot;&gt;V&lt;/font&gt;&lt;sub style=&quot;font-size: 11px&quot;&gt;sys&lt;/sub&gt;&lt;/font&gt;" style="text;html=1;strokeColor=none;fillColor=none;align=center;verticalAlign=middle;whiteSpace=wrap;rounded=0;fontSize=10;" parent="1" vertex="1">
          <mxGeometry x="530" y="146.5" width="40" height="20" as="geometry" />
        </mxCell>
        <mxCell id="cm3Hr6SO8K254G_bE61V-51" value="" style="endArrow=classic;html=1;fontSize=10;" parent="1" edge="1">
          <mxGeometry width="50" height="50" relative="1" as="geometry">
            <mxPoint x="530" y="210" as="sourcePoint" />
            <mxPoint x="570" y="210" as="targetPoint" />
          </mxGeometry>
        </mxCell>
        <mxCell id="cm3Hr6SO8K254G_bE61V-52" value="&lt;font style=&quot;font-size: 14px&quot;&gt;I&lt;/font&gt;&lt;sub&gt;sys&lt;/sub&gt;" style="edgeLabel;html=1;align=center;verticalAlign=middle;resizable=0;points=[];fontSize=10;" parent="cm3Hr6SO8K254G_bE61V-51" vertex="1" connectable="0">
          <mxGeometry x="0.6833" y="-1" relative="1" as="geometry">
            <mxPoint x="-13.67" y="12.25" as="offset" />
          </mxGeometry>
        </mxCell>
        <mxCell id="cm3Hr6SO8K254G_bE61V-58" value="" style="verticalLabelPosition=bottom;shadow=0;dashed=0;align=center;fillColor=#000000;html=1;verticalAlign=top;strokeWidth=1;shape=mxgraph.electrical.miscellaneous.monocell_battery;fontSize=10;direction=north;" parent="1" vertex="1">
          <mxGeometry x="461.25" y="301.25" width="27.49" height="32.5" as="geometry" />
        </mxCell>
        <mxCell id="cm3Hr6SO8K254G_bE61V-60" value="&lt;font style=&quot;font-size: 16px&quot;&gt;Battery&lt;/font&gt;" style="text;html=1;strokeColor=none;fillColor=none;align=center;verticalAlign=middle;whiteSpace=wrap;rounded=0;fontSize=10;" parent="1" vertex="1">
          <mxGeometry x="405" y="307.5" width="40" height="20" as="geometry" />
        </mxCell>
        <mxCell id="cm3Hr6SO8K254G_bE61V-62" value="" style="shape=image;html=1;verticalAlign=top;verticalLabelPosition=bottom;labelBackgroundColor=#ffffff;imageAspect=0;aspect=fixed;image=https://cdn2.iconfinder.com/data/icons/essential-web-1-1/50/close-cross-error-wrong-reject-128.png;fontSize=10;" parent="1" vertex="1">
          <mxGeometry x="400" y="163.5" width="50" height="50" as="geometry" />
        </mxCell>
        <mxCell id="cm3Hr6SO8K254G_bE61V-66" value="" style="endArrow=classic;html=1;fontSize=10;" parent="1" edge="1">
          <mxGeometry relative="1" as="geometry">
            <mxPoint x="516" y="323.31" as="sourcePoint" />
            <mxPoint x="570" y="257" as="targetPoint" />
            <Array as="points">
              <mxPoint x="540" y="257" />
            </Array>
          </mxGeometry>
        </mxCell>
        <mxCell id="cm3Hr6SO8K254G_bE61V-67" value="&lt;span style=&quot;font-family: &amp;#34;roboto&amp;#34; , &amp;#34;robotodraft&amp;#34; , &amp;#34;helvetica&amp;#34; , &amp;#34;arial&amp;#34; , sans-serif ; font-size: 9px ; background-color: rgb(255 , 255 , 255)&quot;&gt;Current path&lt;/span&gt;" style="edgeLabel;resizable=0;html=1;align=center;verticalAlign=middle;fontSize=9;" parent="cm3Hr6SO8K254G_bE61V-66" connectable="0" vertex="1">
          <mxGeometry relative="1" as="geometry">
            <mxPoint x="3.8499999999999996" y="18.72" as="offset" />
          </mxGeometry>
        </mxCell>
      </root>
    </mxGraphModel>
  </diagram>
</mxfile>
